<?xml version="1.0" standalone="no"?>
<!DOCTYPE svg PUBLIC "-//W3C//DTD SVG 20010904//EN"
 "http://www.w3.org/TR/2001/REC-SVG-20010904/DTD/svg10.dtd">
<svg version="1.0" xmlns="http://www.w3.org/2000/svg"
 width="284.000000pt" height="179.000000pt" viewBox="0 0 284.000000 179.000000"
 preserveAspectRatio="xMidYMid meet">

<g transform="translate(0.000000,179.000000) scale(0.100000,-0.100000)"
fill="#000000" stroke="none">
<path d="M928 1439 c-29 -16 -64 -87 -127 -250 -80 -209 -113 -280 -165 -353
-42 -59 -105 -124 -154 -158 -23 -15 -23 -17 -8 -47 19 -36 22 -37 61 -13 110
68 196 214 309 522 31 85 64 162 73 170 17 17 18 34 -12 -210 -18 -147 -20
-390 -2 -413 6 -9 24 -19 39 -23 46 -10 76 35 226 340 120 242 162 319 162
292 0 -4 -11 -52 -24 -109 -27 -115 -62 -319 -72 -418 -9 -89 15 -171 63 -216
19 -18 41 -33 49 -33 11 0 13 -6 8 -22 -26 -82 -24 -123 7 -157 74 -79 260
-21 409 128 62 62 83 92 115 164 l39 87 58 0 c55 0 58 1 58 25 0 23 -3 25 -50
25 -27 0 -50 2 -50 5 0 18 89 248 126 325 40 83 58 107 140 187 130 127 122
139 -96 137 -210 -1 -380 -61 -478 -169 -116 -127 -87 -284 71 -390 38 -26 54
-32 64 -23 21 17 16 27 -39 87 -59 65 -78 104 -78 162 0 126 172 225 423 245
48 4 87 4 87 1 0 -4 -23 -28 -52 -54 -98 -91 -160 -208 -234 -435 l-28 -87
-65 -11 c-126 -22 -245 -73 -332 -141 -45 -36 -59 -36 -90 -3 -21 22 -24 37
-27 107 -3 79 14 187 85 549 17 87 17 88 -4 115 -14 20 -31 29 -56 31 -48 4
-66 -21 -162 -228 -86 -184 -193 -380 -206 -380 -13 0 -11 37 16 324 24 259
23 298 -8 318 -17 11 -49 9 -69 -3z m883 -789 c-55 -144 -179 -260 -277 -260
-21 0 -46 7 -56 17 -22 20 -24 73 -4 112 43 83 212 177 323 180 l33 1 -19 -50z"/>
</g>
</svg>
